SplineFontDB: 3.0
FontName: Career
FullName: Career
FamilyName: Career
Weight: Medium
Copyright: Created by Antoine Gelgon with FontForge 2.0 (http://fontforge.sf.net)
UComments: "2014-5-9: Created." 
Version: 001.000
ItalicAngle: 0
UnderlinePosition: -100
UnderlineWidth: 50
Ascent: 800
Descent: 200
LayerCount: 2
Layer: 0 0 "Arri+AOgA-re"  1
Layer: 1 0 "Avant"  0
XUID: [1021 451 -1852499015 7967832]
FSType: 0
OS2Version: 0
OS2_WeightWidthSlopeOnly: 0
OS2_UseTypoMetrics: 1
CreationTime: 1399649540
ModificationTime: 1402406001
OS2TypoAscent: 0
OS2TypoAOffset: 1
OS2TypoDescent: 0
OS2TypoDOffset: 1
OS2TypoLinegap: 90
OS2WinAscent: 0
OS2WinAOffset: 1
OS2WinDescent: 0
OS2WinDOffset: 1
HheadAscent: 0
HheadAOffset: 1
HheadDescent: 0
HheadDOffset: 1
MarkAttachClasses: 1
DEI: 91125
Encoding: ISO8859-1
UnicodeInterp: none
NameList: Adobe Glyph List
DisplaySize: -48
AntiAlias: 1
FitToEm: 1
WinInfo: 0 29 12
BeginPrivate: 0
EndPrivate
Grid
-1000 21.5 m 0
 2000 21.5 l 0
299.5 1300 m 0
 299.5 -700 l 0
  Named: "center g" 
-1000 -112 m 0
 2000 -112 l 0
-1000 255 m 0
 2000 255 l 0
-1000 508 m 0
 2000 508 l 0
-1000 -12.3333 m 0
 2000 -12.3333 l 0
-1000 500 m 0
 2000 500 l 0
EndSplineSet
BeginChars: 256 28

StartChar: a
Encoding: 97 97 0
Width: 500
VWidth: 0
Flags: HMW
LayerCount: 2
Back
Fore
SplineSet
310 123 m 1
 310 48.0967 205.737 -5 128 -5 c 0
 68.752 -5 12 37.9561 12 96 c 0
 10.583 180.968 103.71 218.412 162.541 245.244 c 128
 208.62 266.26 272.781 289.67 321 309 c 1
 323.323 297.961 324.656 291.628 325 290 c 1
 231.1 258.699 146.266 241.15 150.265 130 c 0
 151.817 86.8613 159.719 40 213 40 c 0
 248.63 40 302.001 98.2373 302 134 c 1
 310 123 l 1
159 363 m 1
 159 302.783 132.942 252.999 75 253 c 0
 40.9668 253.004 9.99902 277.745 10 311 c 0
 10 334.334 23.167 361.667 49.5 393 c 128
 94.4766 446.518 187.771 510 286 510 c 0
 357.1 510 401.831 482.174 419.14 430.552 c 128
 423.713 416.912 426 402.395 426 387 c 2
 426 66 l 2
 426 50.8193 435.482 41.1787 449.259 37.4814 c 128
 457.778 35.1953 469.191 39.0352 483.5 49 c 1
 490 44 l 1
 474.994 23.3027 430.798 -6.00098 390 -6 c 0
 331.312 -6 292 21.6143 292 74 c 2
 292 430 l 2
 292 463.933 287.113 488.574 253 489 c 0
 198.342 489 158 465.599 158 410 c 1
 159 363 l 1
EndSplineSet
Validated: 524325
EndChar

StartChar: o
Encoding: 111 111 1
Width: 556
VWidth: 0
Flags: W
HStem: -12 19.8672<230.705 325.243> 491.166 16.834<234.036 321.912>
VStem: 10 162.215<142.837 353.632> 383.682 162.318<142.837 353.632>
LayerCount: 2
Back
Fore
SplineSet
172.215 250.006 m 4
 172.215 181.786 175.993 130.616 183.55 96.498 c 4
 191.106 62.3779 202.169 39.0762 216.74 26.5918 c 4
 231.312 14.1094 251.715 7.86816 277.95 7.86719 c 4
 304.184 7.86719 324.588 14.1084 339.158 26.5918 c 4
 353.729 39.0752 364.79 62.377 372.348 96.498 c 4
 379.906 130.619 383.684 181.788 383.682 250.006 c 4
 383.684 317.221 379.904 367.964 372.344 402.234 c 4
 364.785 436.503 353.725 459.893 339.162 472.402 c 4
 324.6 484.911 304.195 491.166 277.95 491.166 c 4
 251.704 491.166 231.3 484.911 216.736 472.402 c 4
 202.173 459.893 191.112 436.503 183.554 402.233 c 4
 175.993 367.962 172.213 317.22 172.215 250.006 c 4
10 249 m 4
 10 323 36.167 384.667 88.499 434 c 4
 140.832 483.333 203.999 508 277.999 508 c 4
 351.997 508 415.165 483.333 467.497 434 c 4
 519.831 384.667 545.997 323 546 249 c 4
 545.997 173.666 519.831 111.333 467.497 62 c 4
 415.165 12.667 351.997 -12 277.999 -12 c 4
 203.999 -12 140.832 12.667 88.499 62 c 4
 36.167 111.333 10 173.666 10 249 c 4
EndSplineSet
Validated: 524321
EndChar

StartChar: r
Encoding: 114 114 2
Width: 453
VWidth: 0
Flags: W
HStem: 0 8<37.1729 49.5223 279.711 291.174> 480.097 20G<210.684 231.02>
VStem: 96.9619 134.46<22.9418 392.742>
LayerCount: 2
Back
Fore
SplineSet
231.422 59 m 6
 231.133 46.2451 235.453 35.8564 246.384 27.833 c 4
 255.741 20.3457 265.741 15.124 276.384 12.167 c 6
 291.384 8 l 5
 291.242 5.33301 291.173 2.66602 291.174 0 c 5
 209.813 10.584 125.146 10.584 37.1729 0 c 5
 37.1729 2.66602 37.1025 5.33301 36.9619 8 c 5
 51.9619 12.167 l 6
 62.1025 14.7227 72.1025 19.9443 81.9619 27.833 c 4
 92.1719 35.3281 97.1719 44.0508 96.9619 54 c 6
 97 320 l 6
 97.083 350.708 89.2939 375.554 73.6328 394.539 c 4
 57.9717 413.526 36.8311 426.347 10.2109 433 c 5
 10 439 l 5
 64.1201 447.314 106.602 455.452 137.442 463.414 c 4
 168.284 471.376 197.194 483.604 224.173 500.097 c 5
 231.02 499.097 l 5
 231.422 59 l 6
288.711 412.625 m 4
 259.78 412.625 226.611 311.21 212.962 291 c 13
 218.173 348 l 5
 254.991 400.756 282.967 508.607 370.173 508 c 4
 417.903 508 443.961 472.298 443.961 425 c 4
 443.961 381.275 415.082 344 377.961 344 c 4
 342.215 344 316.215 363.333 299.961 402 c 4
 297.433 409.083 293.683 412.625 288.711 412.625 c 4
EndSplineSet
Validated: 524325
EndChar

StartChar: d
Encoding: 100 100 3
Width: 574
VWidth: 0
Flags: W
HStem: -8 51<230.057 312.82> 36 9<547.148 562.826> 483.166 23.834<220.31 312.62>
VStem: 10 144.999<144.139 344.801> 365.999 29<73.999 242 361 448.446> 366.684 136.563<64.2907 694.46>
LayerCount: 2
Fore
SplineSet
436.999 108 m 25,0,-1
205.999 -8 m 0,1,-1
 78.0322 -8 10 101.146 10 232 c 0,4,-1
 10 383.893 111.525 507 262.999 507 c 0,7,-1
 346.665 507 397.247 448.446 395.999 361 c 2,10,-1
 394.999 242 l 1,11,-1
 394.999 73.999 358.541 -8 205.999 -8 c 0,1,-1
366.684 248.006 m 0,14,-1
 366.684 361.456 377.829 483.166 263.95 483.166 c 0,17,-1
 191.316 483.166 154.999 413.11 154.999 273 c 0,20,-1
 154.999 174.591 193.375 44.5439 286.999 43 c 0,23,-1
 376.02 41.5322 366.684 159.364 366.684 248.006 c 0,14,-1
280.826 739.903 m 1,26,-1
 323.639 746.479 353.104 751.247 369.221 754.207 c 0,29,-1
 385.34 757.167 405.197 762.567 428.797 770.408 c 0,32,-1
 452.398 778.251 474.465 788.448 494.999 801 c 1,35,-1
 501.846 800 l 1,36,-1
 503.247 108 l 6,37,-1
 503.247 93.7344 508.244 81.3193 518.232 70.7549 c 4,40,-1
 528.221 60.1904 538.182 52.8916 548.109 48.8564 c 4,43,-1
 558.038 44.8223 563.085 43.5361 563.247 45 c 5,46,-1
 564.053 43.6953 564.424 42.6201 564.361 41.7744 c 4,49,-1
 564.299 40.9297 564.027 39.8545 563.547 38.5488 c 4,52,-1
 563.066 37.2441 562.826 36.3945 562.826 36 c 5,55,-1
 541.486 38.2783 508.484 34.3369 463.818 24.1748 c 4,58,-1
 419.154 14.0127 388.881 4.62109 372.999 -4 c 5,61,-1
 365.999 0 l 5,62,-1
 367.826 620.903 l 2,63,-1
 367.826 651.559 360.083 676.376 344.6 695.354 c 0,66,-1
 329.115 714.332 307.928 727.182 281.037 733.903 c 1,69,-1
 280.826 739.903 l 1,26,-1
EndSplineSet
Validated: 524325
EndChar

StartChar: s
Encoding: 115 115 4
Width: 425
VWidth: 0
Flags: W
HStem: -12.333 18.333<201.411 266.079> 490 21<161.692 216.074>
VStem: 46.7207 8<203.355 216>
LayerCount: 2
Back
Fore
SplineSet
217.721 173 m 5
 179.721 199 87.8984 219 49.1211 278 c 5
 -28.2793 397 104.508 504.335 213.721 511 c 5
 306.721 511 339.721 467 339.721 467 c 6
 354.721 324 l 4
 346.721 324 l 5
 282.721 443 220.693 491.447 178.721 490 c 4
 120.721 488 92.7207 410 184.721 362 c 5
 276.721 323 l 5
 276.721 323 396.721 272 396.721 151 c 5
 396.721 65 311.721 -12.334 213.721 -12.333 c 4
 123.721 -12.333 43.1211 36 43.1211 36 c 5
 46.7207 216 l 4
 54.7207 216 l 5
 74.0195 127.519 166.721 6 234.721 6 c 5
 303.721 6 330.721 106 217.721 173 c 5
EndSplineSet
Validated: 524321
EndChar

StartChar: e
Encoding: 101 101 5
Width: 497
VWidth: 0
Flags: W
HStem: -11 100<254.423 364.776> 288 18<127.215 484.215> 491.166 16.834<231.904 300.112>
VStem: 10 343.215<288 384>
LayerCount: 2
Back
Fore
SplineSet
10 249 m 4
 10 396.037 123.202 508 270 508 c 1
 402.203 508.089 487.744 384 487.744 288 c 9
 353.215 288 l 17
 353.215 384 350.215 491.166 270.95 491.166 c 5
 88.2148 491.166 112.215 89 336.215 89 c 5
 373 89 432.594 93.2598 476.215 163 c 5
 486.215 162 l 5
 486.215 162 440.215 -11 269 -11 c 4
 121.121 -11 10 100.292 10 249 c 4
487.744 288 m 25
 127.215 288 l 25
 119.215 306 l 25
 484.215 306 l 25
 487.744 288 l 25
EndSplineSet
Validated: 524325
EndChar

StartChar: n
Encoding: 110 110 7
Width: 611
VWidth: 0
Flags: W
HStem: 0 8<37.1729 49.5224 279.711 291.174 346.844 359.193 589.382 600.845> 433 6<10.2109 19.0391> 480.097 20G<191.899 231.02>
VStem: 96.9619 134.46<22.9766 391.805> 212.633 18.387<367 403> 406.633 134.46<22.9418 415.198>
LayerCount: 2
Back
Fore
SplineSet
540.69 358 m 6xec
 541.093 59 l 6
 540.633 46 545.124 35.8564 556.055 27.833 c 4
 565.412 20.3457 575.412 15.124 586.055 12.167 c 6
 601.055 8 l 5
 600.913 5.33301 600.844 2.66602 600.845 0 c 5
 519.484 10.584 434.817 10.584 346.844 0 c 5
 346.844 2.66602 346.773 5.33301 346.633 8 c 5
 361.633 12.167 l 6
 371.773 14.7227 381.773 19.9443 391.633 27.833 c 4
 401.843 35.3281 406.633 44 406.633 54 c 6
 406.671 309 l 6
 406.118 568.182 212.633 367 212.633 367 c 13
 212.633 403 l 21
 454.633 590 540.624 485.924 540.69 358 c 6xec
10 439 m 5
 107.837 454.03 159.625 460.636 224.173 500.097 c 5
 231.02 499.097 l 5xec
 231.422 59 l 6
 230.843 33.4512 255.772 17.8936 276.384 12.167 c 6
 291.384 8 l 5
 291.242 5.33301 291.173 2.66602 291.174 0 c 5
 209.813 10.584 125.146 10.584 37.1729 0 c 5
 37.1729 2.66602 37.1025 5.33301 36.9619 8 c 5
 51.9619 12.167 l 6
 69.0479 16.4727 97.4033 33.1035 96.9619 54 c 6xf4
 97 320 l 6
 97.1709 383.199 61.4814 420.186 10.2109 433 c 5
 10 439 l 5
EndSplineSet
Validated: 524325
EndChar

StartChar: f
Encoding: 102 102 8
Width: 354
VWidth: 0
Flags: W
HStem: 0 8<10.2109 22.5604 252.749 264.212> 434 7<70.0381 203.058> 637 170<236.485 302.135>
VStem: 70 133.46<28.22 441> 223.187 121.001<650.714 762.861>
LayerCount: 2
Back
Fore
SplineSet
289.188 434 m 25
 14.1865 434 l 25
 14.1865 443 l 17
 95.2334 555.226 120.187 807 248.188 807 c 1
 306.188 807 344.188 744 344.188 701 c 1
 343.906 662.866 318.038 637 287.188 637 c 1
 254.188 637 223.187 650 223.187 696 c 1
 223.187 721 230.088 720.001 229.188 744 c 1
 229.188 806 170.187 771 170.187 720 c 1
 170.187 628 206.187 542 206.187 480 c 9
 302.188 480 l 25
 289.188 434 l 25
70.0381 441 m 9
 203.058 441 l 17
 203.46 59 l 2
 203.46 59 208.491 35.8564 219.422 27.833 c 0
 228.779 20.3457 238.779 15.124 249.422 12.167 c 2
 264.422 8 l 1
 264.28 5.33301 264.211 2.66602 264.212 0 c 1
 182.852 10.584 98.1846 10.584 10.2109 0 c 1
 10.2109 2.66602 10.1406 5.33301 10 8 c 1
 25 12.167 l 2
 35.1406 14.7227 45.1406 19.9443 55 27.833 c 0
 65.21 35.3281 70.1865 44 70 54 c 2
 70.0381 441 l 9
EndSplineSet
Validated: 524325
EndChar

StartChar: c
Encoding: 99 99 9
Width: 496
VWidth: 0
Flags: W
HStem: -11 100<254.423 364.776> 491.166 16.834<231.904 299.581>
VStem: 329 132<270.951 366.484 369.792 408.533>
LayerCount: 2
Back
Fore
SplineSet
10 249 m 4
 11 397.37 125.202 508 272 508 c 1
 394 508 461 407.875 461 330 c 1
 461 268 423 254 393 254 c 1
 349 254 313 300 329 368 c 1
 336 408 329 334 329 368 c 1
 350 465 304 492.499 270.95 491.166 c 5
 88.2148 491.166 112.215 89 336.215 89 c 5
 373 89 432.593 93.2598 476.215 163 c 5
 486.215 162 l 5
 486.215 162 440.215 -11 269 -11 c 4
 121.121 -11 10 100.292 10 249 c 4
EndSplineSet
Validated: 524325
EndChar

StartChar: p
Encoding: 112 112 10
Width: 580
VWidth: 0
Flags: W
HStem: -111.833 8<37.1729 49.5223 279.711 291.174> -11 19<278.507 348.281> 433.586 6<10.2109 19.0392> 437 63.1748<250.33 450.131>
VStem: 96.9619 134.46<-88.8564 -52.833 130.175 392.32> 202.148 29.3154<42.7285 415> 418.148 152<154.748 348.877>
LayerCount: 2
Back
Fore
SplineSet
10 439.586 m 1xea
 107.838 454.616 159.624 461.224 224.173 500.683 c 1
 231.02 499.683 l 1
 231.422 -52.833 l 6
 230.843 -78.3818 255.772 -93.9395 276.384 -99.666 c 6
 291.384 -103.833 l 5
 291.242 -106.5 291.173 -109.167 291.174 -111.833 c 5
 209.813 -101.249 125.146 -101.249 37.1729 -111.833 c 5
 37.1729 -109.167 37.1025 -106.5 36.9619 -103.833 c 5
 51.9619 -99.666 l 6
 69.0479 -95.3604 97.4033 -78.7295 96.9619 -57.833 c 6
 97 320.586 l 2
 97.3076 383.589 61.4043 420.791 10.2109 433.586 c 1
 10 439.586 l 1xea
386.148 500.175 m 1xd6
 514.114 500.175 570.148 397.854 570.148 267 c 0
 570.148 120.173 467.733 -11 321.148 -11 c 0
 237.482 -11 200.9 42.7285 202.148 130.175 c 2
 203.148 249.175 l 1
 201.148 415 266.148 500.175 386.148 500.175 c 1xd6
231.464 243.169 m 0
 231.464 130.6 213.148 8 319.148 8 c 0
 396.148 8 418.148 159 418.148 224 c 0
 418.148 407 324.386 437 292.148 437 c 0
 208.511 437 231.464 251 231.464 243.169 c 0
EndSplineSet
Validated: 524325
EndChar

StartChar: b
Encoding: 98 98 11
Width: 598
VWidth: 0
Flags: W
HStem: -4 23.8398<270.811 336.421> 460.006 51<286.036 368.799>
VStem: 95.1729 7.0001<0 2.66166> 202.857 29.564<59.3809 429.007> 443.857 144.999<158.205 358.867>
LayerCount: 2
Back
Fore
SplineSet
232.421 108 m 5
 227.935 59.3809 262.173 20 336.421 -4 c 5
 242.173 -4 201.173 43 201.173 43 c 5
 146.101 100.896 102.173 -4 102.173 -4 c 5
 95.1729 0 l 5
 97 620.903 l 6
 97 651.559 89.2568 676.376 73.7734 695.354 c 4
 58.2891 714.332 37.1016 727.182 10.2109 733.903 c 5
 10 739.903 l 5
 52.8125 746.479 82.2773 751.247 98.3945 754.207 c 4
 114.514 757.167 134.371 762.567 157.971 770.408 c 4
 181.572 778.251 203.639 788.448 224.173 801 c 5
 231.02 800 l 5
 232.421 108 l 5
166.173 108 m 29
392.857 511.006 m 4
 520.823 511.006 588.856 401.86 588.856 271.006 c 4
 588.856 119.113 487.331 -3.99414 335.857 -3.99414 c 4
 252.191 -3.99414 201.609 54.5596 202.857 142.006 c 6
 203.857 261.006 l 5
 203.857 429.007 240.316 511.006 392.857 511.006 c 4
232.173 255 m 4
 232.173 141.55 221.027 19.8398 334.906 19.8398 c 4
 407.54 19.8398 443.857 89.8955 443.857 230.006 c 4
 443.857 328.415 405.481 458.462 311.857 460.006 c 4
 222.837 461.474 232.173 343.642 232.173 255 c 4
EndSplineSet
Validated: 524325
EndChar

StartChar: g
Encoding: 103 103 12
Width: 502
VWidth: 0
Flags: W
HStem: -112 17<132.811 348.191> 0 142<138.417 372.19> 188.949 13.6045<191.695 262.102> 500 6.68164<231 250> 523 139<311.681 423.64>
VStem: 10 60<-71.0888 -1.70149> 29 152<272.27 413.884> 300 152<272.27 413.884>
LayerCount: 2
Back
Fore
SplineSet
163 207 m 17xfd
 42.377 155.134 24.334 120.747 25 86 c 1
 25 14 113 0 237.5 0 c 1
 377 0 397.309 -32.1719 396 -53 c 1
 396 -77 363 -95 237.5 -95 c 1
 179 -95 70.0869 -91.001 70 -39 c 1
 70 0 105.933 3.56152 122 26 c 9
 94 35 l 17
 64.1279 15.4619 10 0 10 -40 c 1
 11.7754 -111.902 175 -112 237.5 -112 c 1
 452 -112 492 -51 492 25 c 1
 492 114 423 142 324 142 c 9
 143 142 l 17
 92 142 191 200 191 200 c 9
 163 207 l 17xfd
231 500 m 9
 250 500 l 17
 250 500 261 574 305 549 c 1
 330 533 339 523 380 523 c 1
 415 523 442 557 442 595 c 1
 442 642 406 662 375 662 c 1
 261 662 231 500 231 500 c 9
240.588 202.554 m 1
 196 202.554 181 266 181 342 c 1xfb
 180.998 413.674 188 490.849 240.588 490.849 c 0
 292 490.849 300.002 413.674 300 342 c 1
 300 266 284 202.554 240.588 202.554 c 1
240.559 506.682 m 0
 150.812 506.682 29 452 29 341.399 c 0
 29 234 150.159 188.949 240.559 188.949 c 0
 329.841 188.949 452 234 452 341.399 c 0
 452 452 329.188 506.682 240.559 506.682 c 0
EndSplineSet
Validated: 524325
EndChar

StartChar: t
Encoding: 116 116 13
Width: 357
VWidth: 0
Flags: W
HStem: -4 40<139.852 291.293> 462 7<65.8516 198.871>
VStem: 65.8135 133.46<61.2418 469>
LayerCount: 2
Back
Fore
SplineSet
65.8135 145 m 2
 65.8516 469 l 9
 198.871 469 l 17
 199.273 150 l 1
 202.183 63.4541 230.852 36 268.852 36 c 1
 310.852 36 340.47 67.5215 339.852 68 c 9
 347.852 62 l 25
 347.852 62 304.352 -4 206.852 -4 c 1
 72.8516 -4 65.8516 112 65.8135 145 c 2
191.852 668 m 1
 201.875 668 l 1
 201.875 668 202 554.374 202 508 c 9
 313 508 l 25
 300 462 l 25
 10 462 l 25
 10 471 l 17
 10 471 111.936 544 191.852 668 c 1
EndSplineSet
Validated: 524325
EndChar

StartChar: m
Encoding: 109 109 14
Width: 922
VWidth: 0
Flags: W
HStem: 0 8<37.1729 49.5224 279.711 291.174 346.844 359.193 589.382 600.845 657.844 670.193 900.382 911.845> 433 6<10.2109 19.0391> 480.097 20G<191.899 231.02>
VStem: 96.9619 134.46<22.9766 391.805> 212.633 18.387<367 403> 406.633 134.46<22.9418 415.198> 523.633 17.057<367 369.915> 717.633 134.46<22.9418 415.198>
LayerCount: 2
Back
Fore
SplineSet
851.69 358 m 2xe3
 852.093 59 l 2
 851.633 46 856.124 35.8564 867.055 27.833 c 0
 876.412 20.3457 886.412 15.124 897.055 12.167 c 2
 912.055 8 l 1
 911.913 5.33301 911.844 2.66602 911.845 0 c 1
 830.484 10.584 745.817 10.584 657.844 0 c 1
 657.844 2.66602 657.773 5.33301 657.633 8 c 1
 672.633 12.167 l 2
 682.773 14.7227 692.773 19.9443 702.633 27.833 c 0
 712.843 35.3281 717.633 44 717.633 54 c 2
 717.671 309 l 2
 717.118 568.182 523.633 367 523.633 367 c 9
 523.633 403 l 17
 765.633 590 851.624 485.924 851.69 358 c 2xe3
540.69 358 m 2
 541.093 59 l 2
 540.633 46 545.124 35.8564 556.055 27.833 c 0
 565.412 20.3457 575.412 15.124 586.055 12.167 c 2
 601.055 8 l 1
 600.913 5.33301 600.844 2.66602 600.845 0 c 1
 519.484 10.584 434.817 10.584 346.844 0 c 1
 346.844 2.66602 346.773 5.33301 346.633 8 c 1
 361.633 12.167 l 2
 371.773 14.7227 381.773 19.9443 391.633 27.833 c 0
 401.843 35.3281 406.633 44 406.633 54 c 2
 406.671 309 l 2
 406.118 568.182 212.633 367 212.633 367 c 9
 212.633 403 l 17xed
 454.633 590 540.624 485.924 540.69 358 c 2
10 439 m 5
 107.837 454.03 159.625 460.636 224.173 500.097 c 5
 231.02 499.097 l 5xe9
 231.422 59 l 6
 230.843 33.4512 255.772 17.8936 276.384 12.167 c 6
 291.384 8 l 5
 291.242 5.33301 291.173 2.66602 291.174 0 c 5
 209.813 10.584 125.146 10.584 37.1729 0 c 5
 37.1729 2.66602 37.1025 5.33301 36.9619 8 c 5
 51.9619 12.167 l 6
 69.0479 16.4727 97.4033 33.1035 96.9619 54 c 6xf1
 97 320 l 6
 97.1709 383.199 61.4814 420.186 10.2109 433 c 5
 10 439 l 5
EndSplineSet
Validated: 524325
EndChar

StartChar: i
Encoding: 105 105 15
Width: 301
VWidth: 0
Flags: W
HStem: 0 8<37.1729 49.5224 279.711 291.174> 433 6<10.2109 19.0391> 480.097 20G<191.899 231.02> 636.221 175.559<118.17 228.705>
VStem: 90.4424 166.56<665.217 782.784> 96.9619 134.46<22.9766 391.805>
LayerCount: 2
Back
Fore
SplineSet
-560 1261 m 29,0,-1
90.4424 724 m 0,1,-1
 90.4424 771.881 125.343 811.78 173.223 811.78 c 0,4,-1
 221.103 811.78 257.002 771.881 257.002 724 c 0,7,-1
 257.002 676.12 221.103 636.221 173.223 636.221 c 0,10,-1
 125.343 636.221 90.4424 676.12 90.4424 724 c 0,1,-1
10 439 m 1,13,-1
 107.837 454.03 159.625 460.636 224.173 500.097 c 1,16,-1
 231.02 499.097 l 1,17,-1
 231.422 59 l 2,18,-1
 230.843 33.4512 255.772 17.8936 276.384 12.167 c 2,21,-1
 291.384 8 l 1,22,-1
 291.242 5.33301 291.173 2.66602 291.174 0 c 1,25,-1
 209.813 10.584 125.146 10.584 37.1729 0 c 1,28,-1
 37.1729 2.66602 37.1025 5.33301 36.9619 8 c 1,31,-1
 51.9619 12.167 l 2,32,-1
 69.0479 16.4727 97.4033 33.1035 96.9619 54 c 2,35,-1
 97 320 l 2,36,-1
 97.1709 383.199 61.4814 420.186 10.2109 433 c 1,39,-1
 10 439 l 1,13,-1
EndSplineSet
Validated: 524321
EndChar

StartChar: h
Encoding: 104 104 16
Width: 578
VWidth: 0
Flags: W
HStem: 0 8<4.91504 17.2645 247.453 258.916 314.586 326.935 557.124 568.587> 779.683 20G<178.426 198.773>
VStem: 64.7041 134.46<22.9418 693.326> 180.375 18.7891<367 403> 374.375 134.46<22.9418 415.198>
LayerCount: 2
Fore
SplineSet
508.433 358 m 5xd8
 508.835 59 l 6
 508.375 46 512.866 35.8564 523.797 27.833 c 4
 533.154 20.3457 543.154 15.124 553.797 12.167 c 6
 568.797 8 l 5
 568.655 5.33301 568.586 2.66602 568.587 0 c 5
 487.227 10.584 402.56 10.584 314.586 0 c 5
 314.586 2.66602 314.516 5.33301 314.375 8 c 5
 329.375 12.167 l 6
 339.516 14.7227 349.516 19.9443 359.375 27.833 c 4
 369.585 35.3281 374.375 44 374.375 54 c 6
 374.413 309 l 5
 373.86 568.182 180.375 367 180.375 367 c 13
 180.375 403 l 21
 422.375 590 508.366 485.924 508.433 358 c 5xd8
199.164 59 m 6xe8
 199.375 46 203.195 35.8564 214.126 27.833 c 4
 223.483 20.3457 233.483 15.124 244.126 12.167 c 6
 259.126 8 l 5
 258.984 5.33301 258.915 2.66602 258.916 0 c 5
 177.556 10.584 92.8887 10.584 4.91504 0 c 5
 4.91504 2.66602 4.84473 5.33301 4.7041 8 c 5
 19.7041 12.167 l 6
 29.8447 14.7227 39.8447 19.9443 49.7041 27.833 c 4
 59.9141 35.3281 64.375 44 64.7041 54 c 6
 64.7422 620.586 l 6
 64.8252 651.294 57.0361 676.14 41.375 695.125 c 4
 25.7139 714.112 4.57324 726.933 -22.0469 733.586 c 5
 -22.2578 739.586 l 5
 31.8623 747.9 74.3438 756.038 105.185 764 c 4
 136.026 771.962 164.937 783.189 191.915 799.683 c 5
 198.762 799.683 l 5
 199.164 59 l 6xe8
EndSplineSet
Validated: 524325
EndChar

StartChar: l
Encoding: 108 108 17
Width: 301
VWidth: 0
Flags: W
HStem: 0 8<37.1729 49.5223 279.711 291.174> 779.683 20G<210.684 231.03>
VStem: 96.9619 134.46<22.9418 693.326>
LayerCount: 2
Fore
SplineSet
231.422 59 m 2
 231.633 46 235.453 35.8564 246.384 27.833 c 0
 255.741 20.3457 265.741 15.124 276.384 12.167 c 2
 291.384 8 l 1
 291.242 5.33301 291.173 2.66602 291.174 0 c 1
 209.813 10.584 125.146 10.584 37.1729 0 c 1
 37.1729 2.66602 37.1025 5.33301 36.9619 8 c 1
 51.9619 12.167 l 2
 62.1025 14.7227 72.1025 19.9443 81.9619 27.833 c 0
 92.1719 35.3281 96.6328 44 96.9619 54 c 2
 97 620.586 l 2
 97.083 651.294 89.2939 676.14 73.6328 695.125 c 0
 57.9717 714.112 36.8311 726.933 10.2109 733.586 c 1
 10 739.586 l 1
 64.1201 747.9 106.602 756.038 137.442 764 c 0
 168.284 771.962 197.194 783.189 224.173 799.683 c 1
 231.02 799.683 l 1
 231.422 59 l 2
EndSplineSet
Validated: 524321
EndChar

StartChar: q
Encoding: 113 113 18
Width: 572
VWidth: 0
Flags: W
HStem: -111.833 8<307.962 320.312 550.5 561.963> -8 51<230.057 312.82> 483.166 23.84<262.436 328.045>
VStem: 10 144.999<144.139 344.801> 366.684 28.315<73.999 242 361 443.625> 496.684 7<500.344 503.006>
LayerCount: 2
Fore
SplineSet
366.751 -55 m 1
 366.436 395.006 l 1
 370.922 443.625 336.684 483.006 262.436 507.006 c 1
 356.684 507.006 397.684 460.006 397.684 460.006 c 1
 452.756 402.109 496.684 507.006 496.684 507.006 c 1
 503.684 503.006 l 1
 503.211 -52.833 l 2
 503.173 -78 526.562 -93.9395 547.173 -99.666 c 2
 562.173 -103.833 l 1
 562.031 -106.5 561.962 -109.167 561.963 -111.833 c 1
 480.603 -101.249 395.936 -101.249 307.962 -111.833 c 1
 307.962 -109.167 307.892 -106.5 307.751 -103.833 c 1
 322.751 -99.666 l 2
 339.837 -95.3604 367.192 -75.8965 366.751 -55 c 1
432.684 395.006 m 25
205.999 -8 m 0
 78.0332 -8 10 101.146 10 232 c 0
 10 383.893 111.525 507 262.999 507 c 0
 346.665 507 397.247 448.446 395.999 361 c 2
 394.999 242 l 1
 394.999 73.999 358.54 -8 205.999 -8 c 0
366.684 248.006 m 0
 366.684 361.456 377.829 483.166 263.95 483.166 c 0
 191.316 483.166 154.999 413.11 154.999 273 c 0
 154.999 174.591 193.375 44.5439 286.999 43 c 0
 376.02 41.5322 366.684 159.364 366.684 248.006 c 0
EndSplineSet
Validated: 524325
EndChar

StartChar: j
Encoding: 106 106 19
Width: 307
VWidth: 0
Flags: W
HStem: -116 170<52.0532 117.738> 433 6<50.7686 59.5967> 636.221 175.56<158.728 269.262>
VStem: 10 121<-73.0504 41.2884> 131 166.56<665.217 782.784> 138 133.979<59.1995 134 320 389.874>
LayerCount: 2
Fore
SplineSet
271.979 120 m 1xf4
 271.577 499.097 l 1
 264.73 500.097 l 1
 200.183 460.636 148.395 454.03 50.5576 439 c 1
 50.7686 433 l 1
 102.039 420.186 137 383 137.558 320 c 2
 138 134 l 1
 138 78 184 37 184 -29 c 1
 184 -80 125 -109 125 -53 c 1
 124.099 -29.001 131 -30 131 -5 c 1
 131 41 100 54 67 54 c 1
 31 52.0996 10.2803 28.1338 10 -10 c 1
 10 -53 48 -116 106 -116 c 1
 234 -116 271.979 52.0996 271.979 120 c 1xf4
131 724 m 0xe8
 131 771.881 165.9 811.78 213.78 811.78 c 0
 261.66 811.78 297.56 771.881 297.56 724 c 0
 297.56 676.12 261.66 636.221 213.78 636.221 c 0
 165.9 636.221 131 676.12 131 724 c 0xe8
EndSplineSet
Validated: 524329
EndChar

StartChar: u
Encoding: 117 117 20
Width: 587
VWidth: 0
Flags: W
HStem: -1 21G<378.999 393.94> 39 9<560.148 575.826> 491.833 8<10.21 21.6732 251.861 264.211 319.881 331.344 561.533 573.882>
VStem: 70.3652 134.019<84.6348 476.588> 379.633 134.46<69.042 476.872>
LayerCount: 2
Fore
SplineSet
378.999 3 m 1
 379.633 440.833 l 2
 380 467 355.79 481.799 334.671 487.666 c 2
 319.671 491.833 l 1
 319.812 494.5 319.882 497.167 319.881 499.833 c 1
 401.242 489.249 485.909 489.249 573.882 499.833 c 1
 573.882 497.167 573.952 494.5 574.093 491.833 c 1
 559.093 487.666 l 2
 541.42 483.212 514 467 514.093 445.833 c 2
 514.247 111 l 2
 514 97 521.244 84.3193 531.232 73.7549 c 0
 541.221 63.1904 551.182 55.8916 561.109 51.8564 c 0
 571.038 47.8223 576.085 46.5361 576.247 48 c 1
 577.053 46.6953 577.424 45.6201 577.361 44.7744 c 0
 577.299 43.9297 577.027 42.8545 576.547 41.5488 c 0
 576.066 40.2441 575.826 39.3945 575.826 39 c 1
 554.486 41.2783 521.484 37.3369 476.818 27.1748 c 0
 432.154 17.0127 401.881 7.62109 385.999 -1 c 1
 378.999 3 l 1
70.3652 141.833 m 2
 69.9619 440.833 l 2
 70.4219 453.833 65.9307 463.977 55 472 c 0
 45.6426 479.487 35.6426 484.709 25 487.666 c 2
 10 491.833 l 1
 10.1416 494.5 10.2109 497.167 10.21 499.833 c 1
 91.5713 489.249 176.238 489.249 264.211 499.833 c 1
 264.211 497.167 264.282 494.5 264.422 491.833 c 1
 249.422 487.666 l 2
 239.282 485.11 229.282 479.889 219.422 472 c 0
 209.212 464.505 204.422 455.833 204.422 445.833 c 2
 204.384 190.833 l 2
 204.937 -68.3486 398.422 132.833 398.422 132.833 c 9
 398.422 96.833 l 17
 156.422 -90.167 70.4307 13.9092 70.3652 141.833 c 2
EndSplineSet
Validated: 524325
EndChar

StartChar: v
Encoding: 118 118 21
Width: 628
VWidth: 0
Flags: W
HStem: 492.097 8<10.2109 22.5604 252.749 264.212 363.789 376.139 594.871 617.79>
LayerCount: 2
Back
Fore
SplineSet
266 -3 m 21
 70 446.097 l 6
 61 467 42.0859 483.624 25 487.93 c 6
 10 492.097 l 5
 10.1406 494.764 10.2109 497.431 10.2109 500.097 c 5
 98.1846 489.513 182.852 489.513 264.212 500.097 c 5
 264.211 497.431 264.28 494.764 264.422 492.097 c 5
 249.422 487.93 l 6
 228.811 482.203 227 468 237.46 442.097 c 6
 349 157 l 13
 266 -3 l 21
433 319 m 13
 266 -3 l 29
 259 13 l 29
 413 327 l 21
 486 478 363.578 492.097 363.578 492.097 c 5
 363.719 494.764 363.789 497.431 363.789 500.097 c 5
 451.763 489.513 536.43 489.513 617.79 500.097 c 5
 617.789 497.431 618 492.097 618 492.097 c 5
 518 491 433 319 433 319 c 13
EndSplineSet
Validated: 524325
EndChar

StartChar: w
Encoding: 119 119 22
Width: 982
VWidth: 0
Flags: W
HStem: 492.097 8<10.2109 22.5604 252.749 264.212 717.789 730.139 948.871 971.79>
LayerCount: 2
Fore
SplineSet
619.578 -3 m 21
 429.578 446.167 l 6
 420.578 467.07 399.792 484.288 382.578 488 c 6
 363.578 492.097 l 5
 363.719 494.764 363.789 497.431 363.789 500.097 c 5
 451.763 489.513 536.43 489.513 617.79 500.097 c 5
 617.789 497.431 617.858 494.764 618 492.097 c 5
 603 487.93 l 6
 582.389 482.203 580.578 468 591.038 442.097 c 6
 702.578 157 l 13
 619.578 -3 l 21
787 319 m 13
 620 -3 l 29
 613 13 l 29
 767 327 l 21
 840 478 717.578 492.097 717.578 492.097 c 5
 717.719 494.764 717.789 497.431 717.789 500.097 c 5
 805.763 489.513 890.43 489.513 971.79 500.097 c 5
 971.789 497.431 972 492.097 972 492.097 c 5
 872 491 787 319 787 319 c 13
266 -3 m 21
 70 446.097 l 6
 61 467 42.0859 483.624 25 487.93 c 6
 10 492.097 l 5
 10.1406 494.764 10.2109 497.431 10.2109 500.097 c 5
 98.1846 489.513 182.852 489.513 264.212 500.097 c 5
 264.211 497.431 264.28 494.764 264.422 492.097 c 5
 249.422 487.93 l 6
 228.811 482.203 227 468 237.46 442.097 c 6
 349 157 l 13
 266 -3 l 21
433 319 m 13
 266 -3 l 29
 259 13 l 29
 413 327 l 21
 486 478 363.578 492.097 363.578 492.097 c 5
 363.719 494.764 363.789 497.431 363.789 500.097 c 5
 451.763 489.513 536.43 489.513 617.79 500.097 c 5
 617.789 497.431 618 492.097 618 492.097 c 5
 518 491 433 319 433 319 c 13
EndSplineSet
Validated: 524325
EndChar

StartChar: x
Encoding: 120 120 23
Width: 588
VWidth: 0
Flags: W
HStem: 0 8<-1 25.815 240.651 253.001 334.5 345.963 576.151 588.501> 495.097 8<10.2109 24.6505 249.771 264.212 323.79 332.028 551.55 577.791>
LayerCount: 2
Fore
SplineSet
234 159 m 1
 149 17 253.212 8 253.212 8 c 1
 253.071 5.33301 253.001 2.66602 253.001 0 c 1
 165.027 10.584 80.3604 10.584 -1 0 c 1
 -0.999023 2.66602 -1.20996 8 -1.20996 8 c 1
 98.79 9.09668 208 159 208 159 c 1
 352 343 l 1
 437 466 323.579 495.097 323.579 495.097 c 1
 323.72 497.764 323.79 500.431 323.79 503.097 c 1
 411.764 492.513 496.431 492.513 577.791 503.097 c 1
 577.79 500.431 578.001 495.097 578.001 495.097 c 5
 485 495.097 377 343 377 343 c 1
 234 159 l 1
524 59 m 1
 524 59 551.699 18.2822 573.712 12.167 c 2
 588.712 8 l 1
 588.571 5.33301 588.501 2.66602 588.501 0 c 1
 500.527 10.584 415.86 10.584 334.5 0 c 1
 334.501 2.66602 334.432 5.33301 334.29 8 c 1
 349.29 12.167 l 2
 369.901 17.8936 377 38 361.252 58 c 1
 70 446.097 l 2
 55 466 42.0859 483.624 25 487.93 c 2
 10 492.097 l 1
 10.1406 494.764 10.2109 497.431 10.2109 500.097 c 1
 98.1846 489.513 182.852 489.513 264.212 500.097 c 1
 264.211 497.431 264.28 494.764 264.422 492.097 c 1
 249.422 487.93 l 2
 228.811 482.203 219 467 237.46 442.097 c 2
 524 59 l 1
EndSplineSet
Validated: 524325
EndChar

StartChar: y
Encoding: 121 121 24
Width: 564
VWidth: 0
Flags: W
HStem: -138 147<73.6973 157.573> 0 21G<260.078 279.191> 492.097 8<10.2109 22.5604 252.749 264.212 363.789 376.139 594.871 617.79>
VStem: 49 122<-56.7042 -6.34148>
LayerCount: 2
Back
Fore
SplineSet
249 -38 m 17xb0
 249 -38 200 -138 129 -138 c 1
 92 -138 49 -112 49 -55 c 1
 49 -8 86 9 114 9 c 1
 154 9 171 -30 171 -30 c 5
 198 -84 220 -50 240 -19 c 9
 413 327 l 17
 486 478 363.578 492.097 363.578 492.097 c 1
 363.719 494.764 363.789 497.431 363.789 500.097 c 1
 451.763 489.513 536.43 489.513 617.79 500.097 c 1
 617.789 497.431 618 492.097 618 492.097 c 1
 518 491 433 319 433 319 c 9
 249 -38 l 17xb0
269 0 m 17x70
 70 446.097 l 2
 61 467 42.0859 483.624 25 487.93 c 2
 10 492.097 l 1
 10.1406 494.764 10.2109 497.431 10.2109 500.097 c 1
 98.1846 489.513 182.852 489.513 264.212 500.097 c 1
 264.211 497.431 264.28 494.764 264.422 492.097 c 1
 249.422 487.93 l 2
 228.811 482.203 227 468 237.46 442.097 c 2
 349 157 l 9
 269 0 l 17x70
EndSplineSet
Validated: 524325
EndChar

StartChar: T
Encoding: 84 84 25
Width: 810
VWidth: 0
Flags: W
HStem: 0 8<233.21 246.905 579.196 592.752> 779 19<283.966 545.877>
VStem: 27 8<536 546.441> 326 174<39.2249 798> 793 8<536 546.441>
LayerCount: 2
Back
Fore
SplineSet
233.21 0 m 1
 233.211 2.66602 233.142 5.33301 233 8 c 1
 233 8 326 22 326 85 c 1
 326.038 798 l 10
 499.54 798 l 17
 500 85 l 1
 500 21.5 592.962 8 592.962 8 c 1
 592.82 5.33301 592.752 0 592.752 0 c 1
 500 21.5 327 19 233.21 0 c 1
470 779 m 1
 358 779 l 0
 101 779 35 536 35 536 c 1
 27 536 l 0
 79 814 l 1
 79 814 119 800 415 800 c 0
 711 800 749 814 749 814 c 1
 801 536 l 0
 793 536 l 1
 793 536 727 779 470 779 c 1
EndSplineSet
Validated: 524325
EndChar

StartChar: L
Encoding: 76 76 26
Width: 741
VWidth: 0
Flags: W
HStem: 0 8<39.21 55.1994> 0.5 21<351.862 492.805> 792 8<38.71 52.4049 384.696 398.252>
VStem: 132 174<50.3241 120 715 759.069>
LayerCount: 2
Back
Fore
SplineSet
488 536 m 4,0,-1
306 120 m 5,1,-1
 305.5 715 l 5,2,-1
 305.5 778.5 398.462 792 398.462 792 c 5,5,-1
 398.32 794.667 398.252 800 398.252 800 c 5,8,-1
 305.5 778.5 132.5 781 38.71 800 c 5,11,-1
 38.7109 797.334 38.6416 794.667 38.5 792 c 5,14,-1
 38.5 792 131.5 778 131.5 715 c 5,17,-1
 132 85 l 5,18,-1
 132 22 39 8 39 8 c 5,21,-1
 39.1416 5.33301 39.2109 2.66602 39.21 0 c 4,24,-1
 681 0.5 l 5,25,-1
 722 285.5 l 4,26,-1
 714 285.5 l 5,27,-1
 714 285.5 673 21.5 416 21.5 c 5,30,-1
 380 21.5 306 21.5 306 120 c 5,1,-1
EndSplineSet
Validated: 524329
EndChar

StartChar: H
Encoding: 72 72 27
Width: 879
VWidth: 0
Flags: W
HStem: 0 8<24.71 38.4049 370.696 384.252 503.21 516.905 849.196 862.752> 403 31<204 710> 792 8<24.71 38.4049 370.696 384.252 503.21 516.905 849.196 862.752>
VStem: 117.5 174<39.2249 403 434 760.775> 204 87.5<403 434> 596 174<39.2249 403 434 760.775>
LayerCount: 2
Back
Fore
SplineSet
204 434 m 25xec
 710 434 l 25
 710 403 l 25
 204 403 l 25
 204 434 l 25xec
596 85 m 2
 596 715 l 2
 596 778 503 792 503 792 c 1
 503.142 794.667 503.211 797.334 503.21 800 c 1
 597 781 770 778.5 862.752 800 c 1
 862.752 800 862.82 794.667 862.962 792 c 1
 862.962 792 770 778.5 770 715 c 2
 770 85 l 2
 770 21.5 862.962 8 862.962 8 c 1
 862.82 5.33301 862.752 0 862.752 0 c 1
 770 21.5 597 19 503.21 0 c 1
 503.211 2.66602 503.142 5.33301 503 8 c 1
 503 8 596 22 596 85 c 2
117.5 85 m 2xf4
 117.5 715 l 2
 117.5 778 24.5 792 24.5 792 c 1
 24.6416 794.667 24.7109 797.334 24.71 800 c 1
 118.5 781 291.5 778.5 384.252 800 c 1
 384.252 800 384.32 794.667 384.462 792 c 1
 384.462 792 291.5 778.5 291.5 715 c 2
 291.5 85 l 2
 291.5 21.5 384.462 8 384.462 8 c 1
 384.32 5.33301 384.252 0 384.252 0 c 1
 291.5 21.5 118.5 19 24.71 0 c 1
 24.7109 2.66602 24.6416 5.33301 24.5 8 c 1
 24.5 8 117.5 22 117.5 85 c 2xf4
EndSplineSet
Validated: 524325
EndChar
